<svg width="59" height="59" viewBox="0 0 59 59" fill="none" xmlns="http://www.w3.org/2000/svg">
<path d="M36.875 4.91669H22.125C20.7673 4.91669 19.6666 6.01732 19.6666 7.37502V12.2917C19.6666 13.6494 20.7673 14.75 22.125 14.75H36.875C38.2327 14.75 39.3333 13.6494 39.3333 12.2917V7.37502C39.3333 6.01732 38.2327 4.91669 36.875 4.91669Z" stroke="#DBAB27" stroke-width="5" stroke-linecap="round" stroke-linejoin="round"/>
<path d="M19.6666 39.3333H19.6912" stroke="#DBAB27" stroke-width="5" stroke-linecap="round" stroke-linejoin="round"/>
<path d="M39.3334 9.83331H44.25C45.554 9.83331 46.8046 10.3513 47.7266 11.2734C48.6487 12.1954 49.1667 13.446 49.1667 14.75V49.1666C49.1667 50.4706 48.6487 51.7212 47.7266 52.6433C46.8046 53.5653 45.554 54.0833 44.25 54.0833H14.75C13.4461 54.0833 12.1955 53.5653 11.2734 52.6433C10.3514 51.7212 9.83337 50.4706 9.83337 49.1666V14.75C9.83337 13.446 10.3514 12.1954 11.2734 11.2734C12.1955 10.3513 13.4461 9.83331 14.75 9.83331H19.6667" stroke="#DBAB27" stroke-width="5" stroke-linecap="round" stroke-linejoin="round"/>
<path d="M29.5 27.0417H39.3333" stroke="#DBAB27" stroke-width="5" stroke-linecap="round" stroke-linejoin="round"/>
<path d="M29.5 39.3333H39.3333" stroke="#DBAB27" stroke-width="5" stroke-linecap="round" stroke-linejoin="round"/>
<path d="M19.6666 27.0417H19.6912" stroke="#DBAB27" stroke-width="5" stroke-linecap="round" stroke-linejoin="round"/>
</svg>
