<svg width="67" height="69" viewBox="0 0 67 69" fill="none" xmlns="http://www.w3.org/2000/svg">
<path d="M15.9366 3.94772C19.7261 2.91457 27.5591 2.37903 32.6399 8.50203C36.26 5.06522 47.1203 -1.42887 57.409 7.55321C66.0464 17.1468 72.8421 42.09 32.6399 66C14.9205 58.789 -4.99997 29 6.71262 13.9207" stroke="white" stroke-width="5" stroke-linecap="round"/>
<path d="M43.309 24.6936C42.7606 26.2617 41.8065 27.4423 40.7958 28.1169C39.7861 28.7907 38.8351 28.9032 38.0911 28.6451C37.347 28.3871 36.6719 27.7106 36.301 26.5579C35.9296 25.4039 35.9182 23.8884 36.4665 22.3203C37.0149 20.7521 37.969 19.5715 38.9798 18.8969C39.9894 18.2231 40.9404 18.1106 41.6844 18.3687C42.4285 18.6268 43.1036 19.3033 43.4746 20.456C43.8459 21.6099 43.8573 23.1254 43.309 24.6936Z" stroke="white" stroke-width="4"/>
<path d="M31.0336 22.4242C31.4215 24.0389 31.2579 25.5454 30.7725 26.6564C30.2876 27.7662 29.5478 28.3723 28.781 28.555C28.0142 28.7377 27.0791 28.5308 26.1424 27.7598C25.2046 26.9879 24.3741 25.7183 23.9862 24.1036C23.5983 22.4889 23.7619 20.9824 24.2473 19.8714C24.7322 18.7616 25.472 18.1555 26.2388 17.9728C27.0056 17.7901 27.9407 17.997 28.8774 18.768C29.8152 19.5399 30.6457 20.8095 31.0336 22.4242Z" stroke="white" stroke-width="4"/>
<path d="M22.8202 31.2333C23.5036 32.3429 23.7498 33.5088 23.6568 34.4616C23.5638 35.4132 23.1541 36.0605 22.6084 36.394C22.0626 36.7274 21.2976 36.7978 20.4037 36.4491C19.5087 36.1 18.5768 35.3531 17.8933 34.2434C17.2099 33.1337 16.9637 31.9679 17.0567 31.0151C17.1497 30.0634 17.5594 29.4162 18.1051 29.0827C18.6509 28.7493 19.4159 28.6788 20.3098 29.0276C21.2048 29.3767 22.1367 30.1236 22.8202 31.2333Z" stroke="white" stroke-width="3"/>
<path d="M48.2839 35.1579C47.4208 36.1364 46.3746 36.7151 45.4328 36.9079C44.4922 37.1005 43.7509 36.9015 43.2708 36.4815C42.7908 36.0614 42.4971 35.3549 42.5678 34.4011C42.6385 33.4461 43.08 32.3383 43.9431 31.3598C44.8062 30.3813 45.8524 29.8025 46.7941 29.6097C47.7348 29.4171 48.476 29.6161 48.9561 30.0362C49.4362 30.4562 49.7298 31.1627 49.6592 32.1166C49.5885 33.0715 49.147 34.1794 48.2839 35.1579Z" stroke="white" stroke-width="3"/>
<path d="M36.7726 49.2388C34.8556 49.7459 33.6561 48.4786 32.7034 48.4786C31.7508 48.4786 30.1111 49.6852 28.373 49.555C26.1267 49.3868 25.0093 49.2454 23.2922 46.8351C21.4847 44.2979 21.9259 41.9612 24.2449 39.8771C24.9554 39.2386 26.5408 38.8481 27.051 38.0417C27.6592 37.0803 27.6009 35.5126 27.9285 34.374C28.0403 33.9854 28.2282 33.6522 28.4676 33.3667C30.6285 30.7901 35.5509 30.7707 37.5734 33.4573C37.8003 33.7588 37.9835 34.0719 38.1537 34.374C38.8661 35.6388 38.4052 37.434 38.7369 38.0417C39.1343 38.7696 39.6054 38.5742 40.3247 38.9905C45.0245 41.7104 41.8489 46.3912 41.8489 46.3912" stroke="white" stroke-width="3" stroke-linecap="round"/>
</svg>
