<svg width="37" height="34" viewBox="0 0 37 34" fill="none" xmlns="http://www.w3.org/2000/svg">
<ellipse cx="18.4662" cy="16.609" rx="18.4662" ry="16.5138" fill="#FA5A7D"/>
<path fill-rule="evenodd" clip-rule="evenodd" d="M12.0031 9.17773C10.9833 9.17773 10.1565 9.9171 10.1565 10.8291V22.3888C10.1565 23.3008 10.9833 24.0402 12.0031 24.0402H24.9295C25.9493 24.0402 26.7761 23.3008 26.7761 22.3888V10.8291C26.7761 9.9171 25.9493 9.17773 24.9295 9.17773H12.0031ZM14.7731 17.4346C14.7731 16.9786 14.3597 16.6089 13.8497 16.6089C13.3398 16.6089 12.9264 16.9786 12.9264 17.4346V20.7374C12.9264 21.1934 13.3398 21.5631 13.8497 21.5631C14.3597 21.5631 14.7731 21.1934 14.7731 20.7374V17.4346ZM18.4663 14.1319C18.9762 14.1319 19.3896 14.5015 19.3896 14.9576V20.7374C19.3896 21.1934 18.9762 21.5631 18.4663 21.5631C17.9564 21.5631 17.543 21.1934 17.543 20.7374V14.9576C17.543 14.5015 17.9564 14.1319 18.4663 14.1319ZM24.0062 12.4805C24.0062 12.0245 23.5928 11.6548 23.0829 11.6548C22.5729 11.6548 22.1595 12.0245 22.1595 12.4805V20.7374C22.1595 21.1934 22.5729 21.5631 23.0829 21.5631C23.5928 21.5631 24.0062 21.1934 24.0062 20.7374V12.4805Z" fill="white"/>
</svg>
