<svg width="57" height="59" viewBox="0 0 57 59" fill="none" xmlns="http://www.w3.org/2000/svg">
<path d="M49.6613 21.7316L20.33 5.48205C19.6681 5.1183 18.9301 4.9281 18.1806 4.9281C17.4312 4.9281 16.6932 5.1183 16.0313 5.48205L7.36251 10.1529C6.58088 10.5962 5.92697 11.2464 5.46757 12.037C5.00816 12.8276 4.75973 13.7302 4.74765 14.6527C4.73558 15.5751 4.96029 16.4844 5.39883 17.2876C5.83737 18.0907 6.47403 18.759 7.24376 19.2241L36.2663 36.2604C36.9712 36.665 37.764 36.8774 38.57 36.8774C39.3761 36.8774 40.1688 36.665 40.8738 36.2604L49.875 30.7537C50.6289 30.2769 51.2483 29.6031 51.671 28.8001C52.0937 27.9971 52.3048 27.0931 52.2831 26.1788C52.2615 25.2646 52.0078 24.3724 51.5476 23.5918C51.0874 22.8112 50.4368 22.1696 49.6613 21.7316Z" stroke="#DBAB27" stroke-width="5" stroke-linecap="round" stroke-linejoin="round"/>
<path d="M7.33873 21.7316L36.67 5.48205C37.3319 5.1183 38.0699 4.9281 38.8194 4.9281C39.5688 4.9281 40.3068 5.1183 40.9687 5.48205L49.6375 10.1529C50.4254 10.5851 51.0883 11.2261 51.5584 12.0104C52.0285 12.7947 52.289 13.6941 52.3131 14.6168C52.3373 15.5394 52.1243 16.4522 51.6959 17.2617C51.2675 18.0712 50.6391 18.7484 49.875 19.2241L20.7337 36.2604C20.0288 36.665 19.236 36.8774 18.43 36.8774C17.6239 36.8774 16.8311 36.665 16.1262 36.2604L7.12498 30.7537C6.3711 30.2769 5.75171 29.6031 5.32901 28.8001C4.90631 27.9971 4.69519 27.0931 4.71685 26.1788C4.73851 25.2646 4.99218 24.3724 5.4524 23.5918C5.91262 22.8112 6.56317 22.1696 7.33873 21.7316Z" stroke="#DBAB27" stroke-width="5" stroke-linecap="round" stroke-linejoin="round"/>
<path d="M28.5 54.0833V31.9583" stroke="#DBAB27" stroke-width="5" stroke-linecap="round" stroke-linejoin="round"/>
<path d="M47.5 33.1875V41.4721C47.5009 42.4 47.2555 43.3103 46.7906 44.1037C46.3257 44.897 45.6592 45.5429 44.8638 45.9708L30.6138 53.5425C29.9608 53.8937 29.2358 54.0771 28.5 54.0771C27.7642 54.0771 27.0392 53.8937 26.3863 53.5425L12.1363 45.9708C11.3408 45.5429 10.6743 44.897 10.2094 44.1037C9.74446 43.3103 9.49907 42.4 9.5 41.4721V33.1875" stroke="#DBAB27" stroke-width="5" stroke-linecap="round" stroke-linejoin="round"/>
</svg>
