<svg width="37" height="34" viewBox="0 0 37 34" fill="none" xmlns="http://www.w3.org/2000/svg">
<ellipse cx="18.2392" cy="16.609" rx="18.2392" ry="16.5138" fill="#FFC000"/>
<path fill-rule="evenodd" clip-rule="evenodd" d="M10.9436 11.6548C10.9436 9.83075 12.5768 8.35205 14.5914 8.35205H20.0632V11.6548C20.0632 13.4789 21.6964 14.9576 23.711 14.9576H25.535V21.5631C25.535 23.3872 23.9018 24.8659 21.8871 24.8659H14.5914C12.5768 24.8659 10.9436 23.3872 10.9436 21.5631V11.6548ZM14.5914 15.7833C14.0878 15.7833 13.6795 16.1529 13.6795 16.609C13.6795 17.065 14.0878 17.4346 14.5914 17.4346H16.4154C16.919 17.4346 17.3273 17.065 17.3273 16.609C17.3273 16.1529 16.919 15.7833 16.4154 15.7833H14.5914ZM14.5914 19.086C14.0878 19.086 13.6795 19.4557 13.6795 19.9117C13.6795 20.3677 14.0878 20.7374 14.5914 20.7374H18.2393C18.7429 20.7374 19.1512 20.3677 19.1512 19.9117C19.1512 19.4557 18.7429 19.086 18.2393 19.086H14.5914ZM22.5089 10.1676L22.3895 11.7893C22.3528 12.2878 22.8095 12.7013 23.3601 12.6681L25.1512 12.56C25.933 12.5128 26.2895 11.6539 25.7354 11.1523L24.0637 9.63864C23.5096 9.13702 22.561 9.45974 22.5089 10.1676Z" fill="white"/>
</svg>
