<svg width="57" height="59" viewBox="0 0 57 59" fill="none" xmlns="http://www.w3.org/2000/svg">
<path d="M19 54.0833C20.3117 54.0833 21.375 52.9827 21.375 51.625C21.375 50.2673 20.3117 49.1666 19 49.1666C17.6883 49.1666 16.625 50.2673 16.625 51.625C16.625 52.9827 17.6883 54.0833 19 54.0833Z" stroke="white" stroke-width="5" stroke-linecap="round" stroke-linejoin="round"/>
<path d="M45.125 54.0833C46.4367 54.0833 47.5 52.9827 47.5 51.625C47.5 50.2673 46.4367 49.1666 45.125 49.1666C43.8133 49.1666 42.75 50.2673 42.75 51.625C42.75 52.9827 43.8133 54.0833 45.125 54.0833Z" stroke="white" stroke-width="5" stroke-linecap="round" stroke-linejoin="round"/>
<path d="M4.86877 5.03955H9.61878L15.9363 35.572C16.168 36.6902 16.7691 37.6898 17.6361 38.3988C18.5031 39.1077 19.5817 39.4817 20.6863 39.4562H43.9138C44.9948 39.4544 46.0429 39.071 46.885 38.3692C47.727 37.6675 48.3126 36.6894 48.545 35.5966L52.4638 17.3312H12.16" stroke="white" stroke-width="5" stroke-linecap="round" stroke-linejoin="round"/>
</svg>
