<svg width="37" height="34" viewBox="0 0 37 34" fill="none" xmlns="http://www.w3.org/2000/svg">
<ellipse cx="18.3906" cy="16.609" rx="18.3906" ry="16.5138" fill="#3CD856"/>
<path fill-rule="evenodd" clip-rule="evenodd" d="M22.6445 11.0482L19.6102 11.4374C19.1467 11.4969 18.7679 11.6953 18.4975 11.9695L11.4176 18.3269C10.6994 18.9718 10.6994 20.0173 11.4176 20.6623L14.0184 22.9977C14.7367 23.6426 15.9011 23.6426 16.6193 22.9977L23.6991 16.6403C24.0045 16.3975 24.2254 16.0574 24.2917 15.6411L24.7251 12.9165C24.8986 11.8267 23.8582 10.8925 22.6445 11.0482ZM20.5205 14.8237C20.8796 15.1462 21.4618 15.1462 21.8209 14.8237C22.18 14.5013 22.18 13.9785 21.8209 13.656C21.4618 13.3336 20.8796 13.3336 20.5205 13.656C20.1614 13.9785 20.1614 14.5013 20.5205 14.8237Z" fill="white"/>
</svg>
