<svg width="37" height="34" viewBox="0 0 37 34" fill="none" xmlns="http://www.w3.org/2000/svg">
<ellipse cx="18.3149" cy="16.609" rx="18.3149" ry="16.5138" fill="#389BF2"/>
<path fill-rule="evenodd" clip-rule="evenodd" d="M21.1464 13.3062C21.1464 15.1302 19.5064 16.6089 17.4834 16.6089C15.4604 16.6089 13.8204 15.1302 13.8204 13.3062C13.8204 11.4821 15.4604 10.0034 17.4834 10.0034C19.5064 10.0034 21.1464 11.4821 21.1464 13.3062ZM17.4834 17.4346C13.9432 17.4346 11.0732 19.283 11.0732 21.5631C11.0732 22.4751 11.8126 23.2145 12.7246 23.2145H22.2422C23.1543 23.2145 23.8936 22.4751 23.8936 21.5631C23.8936 19.283 21.0237 17.4346 17.4834 17.4346ZM24.8094 11.655C25.3152 11.655 25.7252 12.0247 25.7252 12.4807V13.3064H26.6409C27.1466 13.3064 27.5566 13.676 27.5566 14.132C27.5566 14.5881 27.1466 14.9577 26.6409 14.9577H25.7252V15.7834C25.7252 16.2394 25.3152 16.6091 24.8094 16.6091C24.3037 16.6091 23.8937 16.2394 23.8937 15.7834V14.9577H22.9779C22.4722 14.9577 22.0622 14.5881 22.0622 14.132C22.0622 13.676 22.4722 13.3064 22.9779 13.3064H23.8937V12.4807C23.8937 12.0247 24.3037 11.655 24.8094 11.655Z" fill="white"/>
</svg>
