<svg width="57" height="59" viewBox="0 0 57 59" fill="none" xmlns="http://www.w3.org/2000/svg">
<path d="M38 51.625V46.7083C38 44.1004 36.9991 41.5992 35.2175 39.7551C33.4359 37.911 31.0196 36.875 28.5 36.875H14.25C11.7304 36.875 9.31408 37.911 7.53249 39.7551C5.75089 41.5992 4.75 44.1004 4.75 46.7083V51.625" stroke="white" stroke-width="5" stroke-linecap="round" stroke-linejoin="round"/>
<path d="M21.375 27.0417C26.6217 27.0417 30.875 22.6391 30.875 17.2083C30.875 11.7775 26.6217 7.375 21.375 7.375C16.1283 7.375 11.875 11.7775 11.875 17.2083C11.875 22.6391 16.1283 27.0417 21.375 27.0417Z" stroke="white" stroke-width="5" stroke-linecap="round" stroke-linejoin="round"/>
<path d="M52.25 51.625V46.7083C52.2484 44.5296 51.5478 42.4131 50.2582 40.6911C48.9686 38.9691 47.1631 37.7393 45.125 37.1946" stroke="white" stroke-width="5" stroke-linecap="round" stroke-linejoin="round"/>
<path d="M38 7.69458C40.0435 8.23615 41.8547 9.4663 43.1481 11.1911C44.4416 12.9159 45.1436 15.0372 45.1436 17.2206C45.1436 19.404 44.4416 21.5254 43.1481 23.2502C41.8547 24.9749 40.0435 26.2051 38 26.7467" stroke="white" stroke-width="5" stroke-linecap="round" stroke-linejoin="round"/>
</svg>
